<mxfile host="app.diagrams.net" agent="Mozilla/5.0 (Windows NT 10.0; Win64; x64) AppleWebKit/537.36 (KHTML, like Gecko) Chrome/129.0.0.0 Safari/537.36" version="24.7.17">
  <diagram id="C5RBs43oDa-KdzZeNtuy" name="Page-1">
    <mxGraphModel dx="1050" dy="557" grid="1" gridSize="10" guides="1" tooltips="1" connect="1" arrows="1" fold="1" page="1" pageScale="1" pageWidth="827" pageHeight="1169" math="0" shadow="0">
      <root>
        <mxCell id="WIyWlLk6GJQsqaUBKTNV-0" />
        <mxCell id="WIyWlLk6GJQsqaUBKTNV-1" parent="WIyWlLk6GJQsqaUBKTNV-0" />
        <mxCell id="TeeO-VRE3_cX5nChB37l-0" value="" style="edgeStyle=orthogonalEdgeStyle;rounded=0;orthogonalLoop=1;jettySize=auto;html=1;" parent="WIyWlLk6GJQsqaUBKTNV-1" source="TeeO-VRE3_cX5nChB37l-1" edge="1">
          <mxGeometry relative="1" as="geometry">
            <mxPoint x="380" y="170" as="targetPoint" />
          </mxGeometry>
        </mxCell>
        <mxCell id="TeeO-VRE3_cX5nChB37l-1" value="User opens app" style="rounded=1;whiteSpace=wrap;html=1;fontSize=12;glass=0;strokeWidth=1;shadow=0;" parent="WIyWlLk6GJQsqaUBKTNV-1" vertex="1">
          <mxGeometry x="320" y="80" width="120" height="40" as="geometry" />
        </mxCell>
        <mxCell id="TeeO-VRE3_cX5nChB37l-2" value="User Enter Product name, categories, keywords" style="rounded=1;whiteSpace=wrap;html=1;fontSize=12;glass=0;strokeWidth=1;shadow=0;" parent="WIyWlLk6GJQsqaUBKTNV-1" vertex="1">
          <mxGeometry x="310" y="170" width="140" height="60" as="geometry" />
        </mxCell>
        <mxCell id="TeeO-VRE3_cX5nChB37l-6" value="User Flowchart for Searching Product InStore" style="text;strokeColor=none;fillColor=none;html=1;fontSize=24;fontStyle=1;verticalAlign=middle;align=center;" parent="WIyWlLk6GJQsqaUBKTNV-1" vertex="1">
          <mxGeometry x="330" y="10" width="100" height="40" as="geometry" />
        </mxCell>
        <mxCell id="TeeO-VRE3_cX5nChB37l-11" value="" style="edgeStyle=orthogonalEdgeStyle;rounded=0;orthogonalLoop=1;jettySize=auto;html=1;" parent="WIyWlLk6GJQsqaUBKTNV-1" edge="1">
          <mxGeometry relative="1" as="geometry">
            <mxPoint x="379.58" y="230" as="sourcePoint" />
            <mxPoint x="379.58" y="280" as="targetPoint" />
          </mxGeometry>
        </mxCell>
        <mxCell id="TeeO-VRE3_cX5nChB37l-30" value="" style="edgeStyle=orthogonalEdgeStyle;rounded=0;orthogonalLoop=1;jettySize=auto;html=1;" parent="WIyWlLk6GJQsqaUBKTNV-1" edge="1">
          <mxGeometry relative="1" as="geometry">
            <mxPoint x="380" y="500" as="targetPoint" />
            <mxPoint x="380.0000000000001" y="450" as="sourcePoint" />
          </mxGeometry>
        </mxCell>
        <mxCell id="TeeO-VRE3_cX5nChB37l-31" value="System Fetches Items Based on Search Criteria (categories, Keywords)" style="rounded=1;whiteSpace=wrap;html=1;fontSize=12;glass=0;strokeWidth=1;shadow=0;" parent="WIyWlLk6GJQsqaUBKTNV-1" vertex="1">
          <mxGeometry x="310" y="280" width="140" height="60" as="geometry" />
        </mxCell>
        <mxCell id="TeeO-VRE3_cX5nChB37l-34" value="" style="edgeStyle=orthogonalEdgeStyle;rounded=0;orthogonalLoop=1;jettySize=auto;html=1;" parent="WIyWlLk6GJQsqaUBKTNV-1" edge="1">
          <mxGeometry relative="1" as="geometry">
            <mxPoint x="379.58" y="340" as="sourcePoint" />
            <mxPoint x="379.58" y="390" as="targetPoint" />
          </mxGeometry>
        </mxCell>
        <mxCell id="TeeO-VRE3_cX5nChB37l-35" value="" style="edgeStyle=none;curved=1;rounded=0;orthogonalLoop=1;jettySize=auto;html=1;fontSize=12;startSize=8;endSize=8;" parent="WIyWlLk6GJQsqaUBKTNV-1" source="TeeO-VRE3_cX5nChB37l-36" target="TeeO-VRE3_cX5nChB37l-38" edge="1">
          <mxGeometry relative="1" as="geometry" />
        </mxCell>
        <mxCell id="TeeO-VRE3_cX5nChB37l-36" value="&lt;div style=&quot;&quot;&gt;&lt;span style=&quot;font-size: 11px;&quot;&gt;&lt;br&gt;&lt;/span&gt;&lt;/div&gt;&lt;font style=&quot;font-size: 11px;&quot;&gt;&lt;div style=&quot;&quot;&gt;Does User Want to Filter or Sort Results?&lt;/div&gt;&lt;/font&gt;&lt;div style=&quot;&quot;&gt;&lt;br&gt;&lt;/div&gt;" style="strokeWidth=2;html=1;shape=mxgraph.flowchart.decision;whiteSpace=wrap;align=center;" parent="WIyWlLk6GJQsqaUBKTNV-1" vertex="1">
          <mxGeometry x="315" y="390" width="130" height="120" as="geometry" />
        </mxCell>
        <mxCell id="TeeO-VRE3_cX5nChB37l-37" value="" style="edgeStyle=none;curved=1;rounded=0;orthogonalLoop=1;jettySize=auto;html=1;fontSize=12;startSize=8;endSize=8;" parent="WIyWlLk6GJQsqaUBKTNV-1" source="TeeO-VRE3_cX5nChB37l-38" target="TeeO-VRE3_cX5nChB37l-43" edge="1">
          <mxGeometry relative="1" as="geometry" />
        </mxCell>
        <mxCell id="TeeO-VRE3_cX5nChB37l-38" value="Display Filter/Sort Options (Low to High, High to Low, A-Z, Date Added)" style="rounded=1;whiteSpace=wrap;html=1;strokeWidth=2;" parent="WIyWlLk6GJQsqaUBKTNV-1" vertex="1">
          <mxGeometry x="90" y="420" width="120" height="60" as="geometry" />
        </mxCell>
        <mxCell id="TeeO-VRE3_cX5nChB37l-39" value="Yes" style="text;strokeColor=none;align=center;fillColor=none;html=1;verticalAlign=middle;whiteSpace=wrap;rounded=0;fontSize=16;" parent="WIyWlLk6GJQsqaUBKTNV-1" vertex="1">
          <mxGeometry x="240" y="420" width="60" height="30" as="geometry" />
        </mxCell>
        <mxCell id="TeeO-VRE3_cX5nChB37l-41" value="Display Search Results" style="rounded=1;whiteSpace=wrap;html=1;strokeWidth=2;" parent="WIyWlLk6GJQsqaUBKTNV-1" vertex="1">
          <mxGeometry x="530" y="420" width="120" height="60" as="geometry" />
        </mxCell>
        <mxCell id="TeeO-VRE3_cX5nChB37l-42" value="No" style="text;strokeColor=none;align=center;fillColor=none;html=1;verticalAlign=middle;whiteSpace=wrap;rounded=0;fontSize=16;rotation=0;" parent="WIyWlLk6GJQsqaUBKTNV-1" vertex="1">
          <mxGeometry x="452" y="420" width="60" height="30" as="geometry" />
        </mxCell>
        <mxCell id="TeeO-VRE3_cX5nChB37l-43" value="Display Filtered/Sorted Search Results" style="whiteSpace=wrap;html=1;rounded=1;strokeWidth=2;" parent="WIyWlLk6GJQsqaUBKTNV-1" vertex="1">
          <mxGeometry x="90" y="570" width="120" height="60" as="geometry" />
        </mxCell>
        <mxCell id="TeeO-VRE3_cX5nChB37l-47" value="" style="endArrow=classic;html=1;rounded=0;exitX=0.5;exitY=1;exitDx=0;exitDy=0;entryX=0.5;entryY=0;entryDx=0;entryDy=0;entryPerimeter=0;edgeStyle=orthogonalEdgeStyle;" parent="WIyWlLk6GJQsqaUBKTNV-1" source="TeeO-VRE3_cX5nChB37l-43" target="TeeO-VRE3_cX5nChB37l-48" edge="1">
          <mxGeometry width="50" height="50" relative="1" as="geometry">
            <mxPoint x="140" y="660" as="sourcePoint" />
            <mxPoint x="320" y="719.9999999999998" as="targetPoint" />
            <Array as="points">
              <mxPoint x="150" y="680" />
              <mxPoint x="380" y="680" />
            </Array>
          </mxGeometry>
        </mxCell>
        <mxCell id="TeeO-VRE3_cX5nChB37l-50" value="" style="edgeStyle=orthogonalEdgeStyle;rounded=0;orthogonalLoop=1;jettySize=auto;html=1;" parent="WIyWlLk6GJQsqaUBKTNV-1" source="TeeO-VRE3_cX5nChB37l-48" target="TeeO-VRE3_cX5nChB37l-49" edge="1">
          <mxGeometry relative="1" as="geometry" />
        </mxCell>
        <mxCell id="TeeO-VRE3_cX5nChB37l-52" value="" style="edgeStyle=orthogonalEdgeStyle;rounded=0;orthogonalLoop=1;jettySize=auto;html=1;" parent="WIyWlLk6GJQsqaUBKTNV-1" source="TeeO-VRE3_cX5nChB37l-48" target="TeeO-VRE3_cX5nChB37l-51" edge="1">
          <mxGeometry relative="1" as="geometry" />
        </mxCell>
        <mxCell id="TeeO-VRE3_cX5nChB37l-48" value="&lt;div style=&quot;&quot;&gt;Is Product Available in the Store?&lt;br&gt;&lt;/div&gt;" style="strokeWidth=2;html=1;shape=mxgraph.flowchart.decision;whiteSpace=wrap;align=center;" parent="WIyWlLk6GJQsqaUBKTNV-1" vertex="1">
          <mxGeometry x="315" y="690" width="130" height="120" as="geometry" />
        </mxCell>
        <mxCell id="TeeO-VRE3_cX5nChB37l-49" value="Show Aisle number" style="rounded=1;whiteSpace=wrap;html=1;strokeWidth=2;" parent="WIyWlLk6GJQsqaUBKTNV-1" vertex="1">
          <mxGeometry x="90" y="720" width="120" height="60" as="geometry" />
        </mxCell>
        <mxCell id="TeeO-VRE3_cX5nChB37l-51" value="Display &quot;Out of Stock&quot;" style="rounded=1;whiteSpace=wrap;html=1;strokeWidth=2;" parent="WIyWlLk6GJQsqaUBKTNV-1" vertex="1">
          <mxGeometry x="530" y="720" width="120" height="60" as="geometry" />
        </mxCell>
        <mxCell id="TeeO-VRE3_cX5nChB37l-53" value="Yes" style="text;strokeColor=none;align=center;fillColor=none;html=1;verticalAlign=middle;whiteSpace=wrap;rounded=0;fontSize=16;" parent="WIyWlLk6GJQsqaUBKTNV-1" vertex="1">
          <mxGeometry x="240" y="720" width="60" height="30" as="geometry" />
        </mxCell>
        <mxCell id="TeeO-VRE3_cX5nChB37l-54" value="No" style="text;strokeColor=none;align=center;fillColor=none;html=1;verticalAlign=middle;whiteSpace=wrap;rounded=0;fontSize=16;" parent="WIyWlLk6GJQsqaUBKTNV-1" vertex="1">
          <mxGeometry x="460" y="720" width="60" height="30" as="geometry" />
        </mxCell>
        <mxCell id="TeeO-VRE3_cX5nChB37l-56" value="" style="edgeStyle=orthogonalEdgeStyle;rounded=0;orthogonalLoop=1;jettySize=auto;html=1;" parent="WIyWlLk6GJQsqaUBKTNV-1" edge="1">
          <mxGeometry relative="1" as="geometry">
            <mxPoint x="445" y="448.75" as="sourcePoint" />
            <mxPoint x="530" y="448.75" as="targetPoint" />
          </mxGeometry>
        </mxCell>
        <mxCell id="TeeO-VRE3_cX5nChB37l-58" value="" style="endArrow=classic;html=1;rounded=0;exitX=0.5;exitY=1;exitDx=0;exitDy=0;entryX=0.5;entryY=0;entryDx=0;entryDy=0;entryPerimeter=0;edgeStyle=orthogonalEdgeStyle;" parent="WIyWlLk6GJQsqaUBKTNV-1" source="TeeO-VRE3_cX5nChB37l-41" target="TeeO-VRE3_cX5nChB37l-48" edge="1">
          <mxGeometry width="50" height="50" relative="1" as="geometry">
            <mxPoint x="440" y="660" as="sourcePoint" />
            <mxPoint x="440" y="630" as="targetPoint" />
          </mxGeometry>
        </mxCell>
        <mxCell id="TeeO-VRE3_cX5nChB37l-59" value="End" style="whiteSpace=wrap;html=1;rounded=1;glass=0;strokeWidth=1;shadow=0;" parent="WIyWlLk6GJQsqaUBKTNV-1" vertex="1">
          <mxGeometry x="320" y="910" width="120" height="40" as="geometry" />
        </mxCell>
        <mxCell id="TeeO-VRE3_cX5nChB37l-61" value="" style="endArrow=classic;html=1;rounded=0;entryX=1;entryY=0.5;entryDx=0;entryDy=0;exitX=0.5;exitY=1;exitDx=0;exitDy=0;edgeStyle=orthogonalEdgeStyle;" parent="WIyWlLk6GJQsqaUBKTNV-1" source="TeeO-VRE3_cX5nChB37l-51" target="TeeO-VRE3_cX5nChB37l-59" edge="1">
          <mxGeometry width="50" height="50" relative="1" as="geometry">
            <mxPoint x="350" y="850" as="sourcePoint" />
            <mxPoint x="400" y="800" as="targetPoint" />
          </mxGeometry>
        </mxCell>
        <mxCell id="TeeO-VRE3_cX5nChB37l-62" value="" style="endArrow=classic;html=1;rounded=0;exitX=0.5;exitY=1;exitDx=0;exitDy=0;entryX=0;entryY=0.5;entryDx=0;entryDy=0;edgeStyle=orthogonalEdgeStyle;" parent="WIyWlLk6GJQsqaUBKTNV-1" source="TeeO-VRE3_cX5nChB37l-49" target="TeeO-VRE3_cX5nChB37l-59" edge="1">
          <mxGeometry width="50" height="50" relative="1" as="geometry">
            <mxPoint x="350" y="850" as="sourcePoint" />
            <mxPoint x="340" y="870" as="targetPoint" />
          </mxGeometry>
        </mxCell>
      </root>
    </mxGraphModel>
  </diagram>
</mxfile>
